<svg width="27" height="30" viewBox="0 0 27 30" fill="none" xmlns="http://www.w3.org/2000/svg">
<rect x="3" y="6" width="24" height="24" rx="6" fill="black" fill-opacity="0.4"/>
<path d="M12.375 11C12.859 11 13.25 11.391 13.25 11.875V12.75H16.75V11.875C16.75 11.391 17.141 11 17.625 11C18.109 11 18.5 11.391 18.5 11.875V12.75H19.8125C20.5371 12.75 21.125 13.3379 21.125 14.0625V15.375H8.875V14.0625C8.875 13.3379 9.46289 12.75 10.1875 12.75H11.5V11.875C11.5 11.391 11.891 11 12.375 11ZM8.875 16.25H21.125V23.6875C21.125 24.4121 20.5371 25 19.8125 25H10.1875C9.46289 25 8.875 24.4121 8.875 23.6875V16.25ZM10.625 18.4375V19.3125C10.625 19.5531 10.8219 19.75 11.0625 19.75H11.9375C12.1781 19.75 12.375 19.5531 12.375 19.3125V18.4375C12.375 18.1969 12.1781 18 11.9375 18H11.0625C10.8219 18 10.625 18.1969 10.625 18.4375ZM14.125 18.4375V19.3125C14.125 19.5531 14.3219 19.75 14.5625 19.75H15.4375C15.6781 19.75 15.875 19.5531 15.875 19.3125V18.4375C15.875 18.1969 15.6781 18 15.4375 18H14.5625C14.3219 18 14.125 18.1969 14.125 18.4375ZM18.0625 18C17.8219 18 17.625 18.1969 17.625 18.4375V19.3125C17.625 19.5531 17.8219 19.75 18.0625 19.75H18.9375C19.1781 19.75 19.375 19.5531 19.375 19.3125V18.4375C19.375 18.1969 19.1781 18 18.9375 18H18.0625ZM10.625 21.9375V22.8125C10.625 23.0531 10.8219 23.25 11.0625 23.25H11.9375C12.1781 23.25 12.375 23.0531 12.375 22.8125V21.9375C12.375 21.6969 12.1781 21.5 11.9375 21.5H11.0625C10.8219 21.5 10.625 21.6969 10.625 21.9375ZM14.5625 21.5C14.3219 21.5 14.125 21.6969 14.125 21.9375V22.8125C14.125 23.0531 14.3219 23.25 14.5625 23.25H15.4375C15.6781 23.25 15.875 23.0531 15.875 22.8125V21.9375C15.875 21.6969 15.6781 21.5 15.4375 21.5H14.5625ZM17.625 21.9375V22.8125C17.625 23.0531 17.8219 23.25 18.0625 23.25H18.9375C19.1781 23.25 19.375 23.0531 19.375 22.8125V21.9375C19.375 21.6969 19.1781 21.5 18.9375 21.5H18.0625C17.8219 21.5 17.625 21.6969 17.625 21.9375Z" fill="url(#paint0_linear_60_2482)"/>
<path d="M4.50235 9.2753C3.91102 8.4027 2.41248 6.64235 1.14902 6.58175M7.46632 6.88471C7.31128 5.71644 7.18187 2.91368 7.90448 1.04878" stroke="url(#paint1_linear_60_2482)" stroke-width="2" stroke-linecap="round" stroke-linejoin="round"/>
<defs>
<linearGradient id="paint0_linear_60_2482" x1="9.57902" y1="19.0769" x2="21.1254" y2="19.0953" gradientUnits="userSpaceOnUse">
<stop stop-color="#22F3F8"/>
<stop offset="1" stop-color="#29F479"/>
</linearGradient>
<linearGradient id="paint1_linear_60_2482" x1="1.73727" y1="6.97582" x2="9.00105" y2="4.95183" gradientUnits="userSpaceOnUse">
<stop stop-color="#22F3F8"/>
<stop offset="1" stop-color="#29F479"/>
</linearGradient>
</defs>
</svg>
