<svg width="36" height="36" viewBox="0 0 36 36" fill="none" xmlns="http://www.w3.org/2000/svg">
<path style="mix-blend-mode:multiply" d="M13.9149 32.8884C8.81004 32.8884 4.67172 32.7008 4.67172 32.4693C4.67172 32.2379 8.81004 32.0503 13.9149 32.0503C19.0198 32.0503 23.1581 32.2379 23.1581 32.4693C23.1581 32.7008 19.0198 32.8884 13.9149 32.8884Z" fill="url(#paint0_radial_27_729)"/>
<path d="M16.9564 26.0711C16.8345 26.1147 16.7312 26.2016 16.6704 26.317C16.6097 26.4325 16.5962 26.5663 16.6333 26.6901C16.6705 26.8138 16.7554 26.9182 16.8696 26.9811C16.9839 27.044 17.118 27.0597 17.2437 27.029C17.9141 26.8629 18.5524 26.6812 19.1595 26.4851C21.9507 25.569 24.7812 24.1437 26.7851 21.6767C28.822 19.2801 29.4967 15.4797 27.9846 12.523C26.5771 9.52434 23.1505 7.43481 19.782 8.00165C16.3967 8.54863 14.0794 11.1126 12.5976 13.7312C12.2716 14.3098 11.9869 14.8852 11.7028 15.5264C11.651 15.645 11.6434 15.7798 11.6858 15.9032C11.7282 16.0266 11.8165 16.1282 11.9321 16.186C12.0477 16.2438 12.1819 16.2535 12.306 16.2134C12.4302 16.1733 12.5335 16.0863 12.5973 15.9736C12.9272 15.3887 13.2511 14.8731 13.6057 14.3614C15.2172 12.0172 17.4426 10.0518 20.0192 9.78314C22.5683 9.47738 25.0888 11.0868 26.1856 13.3968C28.6911 18.2989 23.9007 23.4018 18.7402 25.3702C18.1809 25.6128 17.5868 25.847 16.9564 26.0711Z" fill="#C8CDD4"/>
<path d="M20.6315 12.959C22.1786 11.4119 29.699 3.10511 31.297 4.70315C32.8949 6.30101 24.5882 13.8214 23.0411 15.3687C19.7439 18.6659 22.1913 21.0882 20.5173 22.7622L16.8776 19.1224L13.2378 15.4826C14.9118 13.8086 17.3342 16.2565 20.6315 12.959Z" fill="#C9CED7"/>
<path d="M16.8777 19.1224L20.5175 22.762L18.3699 24.9096L14.7303 21.2698L11.0905 17.6302L13.2381 15.4827L16.8777 19.1224Z" fill="#E9ECEE"/>
<path d="M10.8457 30.3939C10.3403 30.0004 9.72051 29.4777 8.98719 28.7899L10.5917 26.9386L8.86011 28.6702C8.61405 28.4371 8.35557 28.186 8.08485 27.9151C7.59903 27.4293 7.17639 26.9835 6.80847 26.5772L11.1157 21.849L6.53235 26.2681C6.15831 25.8433 5.84853 25.4668 5.59383 25.139L8.32569 22.4071L5.33733 24.8008C4.69023 23.9254 4.49997 23.485 4.49997 23.485L11.0903 17.6301L14.7301 21.2699L18.3699 24.9097L12.515 31.5C12.515 31.5 12.0531 31.3006 11.1355 30.6153L14.1255 26.8542L10.8453 30.3941L10.8457 30.3939Z" fill="url(#paint1_linear_27_729)"/>
<path d="M28.71 7.9716C28.3336 7.9716 28.0285 7.66649 28.0285 7.29012C28.0285 6.91375 28.3336 6.60864 28.71 6.60864C29.0864 6.60864 29.3915 6.91375 29.3915 7.29012C29.3915 7.66649 29.0864 7.9716 28.71 7.9716Z" fill="white"/>
<path d="M20.6315 12.9589C21.1494 12.441 22.3365 11.1659 23.7466 9.7583L26.2416 12.2533C24.834 13.6634 23.5589 14.8505 23.041 15.3684C22.8192 15.5901 22.6243 15.8077 22.4515 16.0216L19.9781 13.5482C20.192 13.3754 20.4098 13.1806 20.6315 12.9589Z" fill="#C9CED7"/>
<path d="M8.0999 1.80005C8.0999 1.80005 8.49716 5.508 10.0446 7.0554C11.5919 8.60279 15.2999 9.00005 15.2999 9.00005C15.2999 9.00005 11.5919 9.39731 10.0446 10.9447C8.49716 12.4921 8.0999 16.2 8.0999 16.2C8.0999 16.2 7.70264 12.4921 6.15525 10.9447C4.60786 9.39731 0.899902 9.00005 0.899902 9.00005C0.899902 9.00005 4.60786 8.60279 6.15525 7.0554C7.70264 5.508 8.0999 1.80005 8.0999 1.80005Z" fill="white"/>
<defs>
<radialGradient id="paint0_radial_27_729" cx="0" cy="0" r="1" gradientUnits="userSpaceOnUse" gradientTransform="translate(13.8119 27.2644) scale(9.2763 0.398981)">
<stop stop-color="#787878"/>
<stop offset="0.01" stop-color="#7B7B7B"/>
<stop offset="0.16" stop-color="#A3A3A3"/>
<stop offset="0.32" stop-color="#C4C4C4"/>
<stop offset="0.48" stop-color="#DEDEDE"/>
<stop offset="0.64" stop-color="#F0F0F0"/>
<stop offset="0.81" stop-color="#FBFBFB"/>
<stop offset="1" stop-color="white"/>
</radialGradient>
<linearGradient id="paint1_linear_27_729" x1="7.65007" y1="27.4499" x2="14.4001" y2="21.1499" gradientUnits="userSpaceOnUse">
<stop stop-color="#CED1D7"/>
<stop offset="1" stop-color="#CBE0F3"/>
</linearGradient>
</defs>
</svg>
