<svg width="36" height="36" viewBox="0 0 36 36" fill="none" xmlns="http://www.w3.org/2000/svg">
<g clip-path="url(#clip0_22_474)">
<path style="mix-blend-mode:multiply" d="M13.9149 32.8885C8.81004 32.8885 4.67172 32.7009 4.67172 32.4695C4.67172 32.238 8.81004 32.0504 13.9149 32.0504C19.0198 32.0504 23.1581 32.238 23.1581 32.4695C23.1581 32.7009 19.0198 32.8885 13.9149 32.8885Z" fill="url(#paint0_radial_22_474)"/>
<path d="M16.9564 26.071C16.8345 26.1146 16.7312 26.2015 16.6704 26.3169C16.6097 26.4323 16.5962 26.5662 16.6333 26.6899C16.6705 26.8137 16.7554 26.9181 16.8696 26.981C16.9839 27.0439 17.118 27.0595 17.2437 27.0289C17.9141 26.8627 18.5524 26.6811 19.1595 26.485C21.9507 25.5689 24.7812 24.1436 26.7851 21.6765C28.822 19.28 29.4967 15.4796 27.9846 12.5228C26.5771 9.52422 23.1505 7.43469 19.782 8.00152C16.3967 8.54851 14.0794 11.1125 12.5976 13.731C12.2716 14.3097 11.9869 14.8851 11.7028 15.5263C11.651 15.6449 11.6434 15.7797 11.6858 15.9031C11.7282 16.0265 11.8165 16.1281 11.9321 16.1859C12.0477 16.2436 12.1819 16.2533 12.306 16.2132C12.4302 16.1731 12.5335 16.0862 12.5973 15.9735C12.9272 15.3886 13.2511 14.873 13.6057 14.3613C15.2172 12.0171 17.4426 10.0517 20.0192 9.78302C22.5683 9.47726 25.0888 11.0867 26.1856 13.3967C28.6911 18.2988 23.9007 23.4017 18.7402 25.3701C18.1809 25.6127 17.5868 25.8469 16.9564 26.071Z" fill="url(#paint1_radial_22_474)"/>
<path d="M20.6315 12.959C22.1786 11.4119 29.699 3.10511 31.297 4.70315C32.8949 6.30101 24.5882 13.8214 23.0411 15.3687C19.7439 18.6659 22.1913 21.0882 20.5173 22.7622L16.8776 19.1224L13.2378 15.4826C14.9118 13.8086 17.3342 16.2565 20.6315 12.959Z" fill="#8F480A"/>
<path d="M16.8777 19.1223L20.5175 22.7619L18.3699 24.9095L14.7303 21.2697L11.0905 17.6301L13.2381 15.4825L16.8777 19.1223Z" fill="#E2E2E2"/>
<path d="M10.8457 30.3939C10.3403 30.0004 9.72051 29.4777 8.98719 28.7899L10.5917 26.9386L8.86011 28.6702C8.61405 28.4371 8.35557 28.186 8.08485 27.9151C7.59903 27.4293 7.17639 26.9835 6.80847 26.5772L11.1157 21.849L6.53235 26.2681C6.15831 25.8433 5.84853 25.4668 5.59383 25.139L8.32569 22.4071L5.33733 24.8008C4.69023 23.9254 4.49997 23.485 4.49997 23.485L11.0903 17.6301L14.7301 21.2699L18.3699 24.9097L12.515 31.5C12.515 31.5 12.0531 31.3006 11.1355 30.6153L14.1255 26.8542L10.8453 30.3941L10.8457 30.3939Z" fill="url(#paint2_linear_22_474)"/>
<path d="M28.71 7.9716C28.3336 7.9716 28.0285 7.66649 28.0285 7.29012C28.0285 6.91375 28.3336 6.60864 28.71 6.60864C29.0864 6.60864 29.3915 6.91375 29.3915 7.29012C29.3915 7.66649 29.0864 7.9716 28.71 7.9716Z" fill="white"/>
<path d="M20.6315 12.959C21.1494 12.4411 22.3365 11.166 23.7466 9.75842L26.2416 12.2534C24.834 13.6635 23.5589 14.8506 23.041 15.3685C22.8192 15.5902 22.6243 15.8079 22.4515 16.0217L19.9781 13.5483C20.192 13.3755 20.4096 13.1806 20.6313 12.9588L20.6315 12.959Z" fill="#DB6D0D" fill-opacity="0.85"/>
<g filter="url(#filter0_d_22_474)">
<path d="M8.10002 0.800049C8.10002 0.800049 8.49729 4.508 10.0447 6.0554C11.5921 7.60279 15.3 8.00005 15.3 8.00005C15.3 8.00005 11.5921 8.39731 10.0447 9.9447C8.49729 11.4921 8.10002 15.2 8.10002 15.2C8.10002 15.2 7.70276 11.4921 6.15537 9.9447C4.60798 8.39731 0.900024 8.00005 0.900024 8.00005C0.900024 8.00005 4.60798 7.60279 6.15537 6.0554C7.70276 4.508 8.10002 0.800049 8.10002 0.800049Z" fill="white"/>
</g>
<g filter="url(#filter1_d_22_474)">
<path d="M28.8 24.4C28.8 24.4 28.9986 26.254 29.7723 27.0277C30.546 27.8014 32.4 28 32.4 28C32.4 28 30.546 28.1987 29.7723 28.9724C28.9986 29.746 28.8 31.6 28.8 31.6C28.8 31.6 28.6013 29.746 27.8276 28.9724C27.0539 28.1987 25.2 28 25.2 28C25.2 28 27.0539 27.8014 27.8276 27.0277C28.6013 26.254 28.8 24.4 28.8 24.4Z" fill="white"/>
<path d="M28.7996 26.4039C28.9517 26.7614 29.1516 27.1144 29.4187 27.3815C29.6856 27.6483 30.0382 27.8476 30.3953 27.9996C30.038 28.1517 29.6856 28.3518 29.4187 28.6188C29.1518 28.8857 28.9517 29.2381 28.7996 29.5953C28.6475 29.2383 28.4482 28.8856 28.1814 28.6188C27.9143 28.3517 27.5613 28.1518 27.2039 27.9996C27.5612 27.8475 27.9144 27.6485 28.1814 27.3815C28.4484 27.1144 28.6474 26.7613 28.7996 26.4039Z" stroke="url(#paint3_linear_22_474)"/>
</g>
</g>
<defs>
<filter id="filter0_d_22_474" x="-3.09998" y="0.800049" width="22.4" height="22.4" filterUnits="userSpaceOnUse" color-interpolation-filters="sRGB">
<feFlood flood-opacity="0" result="BackgroundImageFix"/>
<feColorMatrix in="SourceAlpha" type="matrix" values="0 0 0 0 0 0 0 0 0 0 0 0 0 0 0 0 0 0 127 0" result="hardAlpha"/>
<feOffset dy="4"/>
<feGaussianBlur stdDeviation="2"/>
<feComposite in2="hardAlpha" operator="out"/>
<feColorMatrix type="matrix" values="0 0 0 0 0 0 0 0 0 0 0 0 0 0 0 0 0 0 0.25 0"/>
<feBlend mode="normal" in2="BackgroundImageFix" result="effect1_dropShadow_22_474"/>
<feBlend mode="normal" in="SourceGraphic" in2="effect1_dropShadow_22_474" result="shape"/>
</filter>
<filter id="filter1_d_22_474" x="21.2" y="24.4" width="15.2" height="15.2" filterUnits="userSpaceOnUse" color-interpolation-filters="sRGB">
<feFlood flood-opacity="0" result="BackgroundImageFix"/>
<feColorMatrix in="SourceAlpha" type="matrix" values="0 0 0 0 0 0 0 0 0 0 0 0 0 0 0 0 0 0 127 0" result="hardAlpha"/>
<feOffset dy="4"/>
<feGaussianBlur stdDeviation="2"/>
<feComposite in2="hardAlpha" operator="out"/>
<feColorMatrix type="matrix" values="0 0 0 0 0 0 0 0 0 0 0 0 0 0 0 0 0 0 0.25 0"/>
<feBlend mode="normal" in2="BackgroundImageFix" result="effect1_dropShadow_22_474"/>
<feBlend mode="normal" in="SourceGraphic" in2="effect1_dropShadow_22_474" result="shape"/>
</filter>
<radialGradient id="paint0_radial_22_474" cx="0" cy="0" r="1" gradientUnits="userSpaceOnUse" gradientTransform="translate(13.8119 27.2645) scale(9.2763 0.398981)">
<stop stop-color="#787878"/>
<stop offset="0.01" stop-color="#7B7B7B"/>
<stop offset="0.16" stop-color="#A3A3A3"/>
<stop offset="0.32" stop-color="#C4C4C4"/>
<stop offset="0.48" stop-color="#DEDEDE"/>
<stop offset="0.64" stop-color="#F0F0F0"/>
<stop offset="0.81" stop-color="#FBFBFB"/>
<stop offset="1" stop-color="white"/>
</radialGradient>
<radialGradient id="paint1_radial_22_474" cx="0" cy="0" r="1" gradientUnits="userSpaceOnUse" gradientTransform="translate(18.9002 19.3499) rotate(-58.6271) scale(10.9084 11.4518)">
<stop stop-color="white"/>
<stop offset="0.283654" stop-color="#D28B06"/>
<stop offset="0.560783" stop-color="#FFFEFD"/>
<stop offset="0.923012" stop-color="#FFBA3B"/>
<stop offset="1" stop-color="white"/>
</radialGradient>
<linearGradient id="paint2_linear_22_474" x1="7.65009" y1="27.8999" x2="14.4001" y2="21.5999" gradientUnits="userSpaceOnUse">
<stop stop-color="#FEC392"/>
<stop offset="1" stop-color="white"/>
</linearGradient>
<linearGradient id="paint3_linear_22_474" x1="28.8" y1="31.6" x2="28.8" y2="24.4" gradientUnits="userSpaceOnUse">
<stop stop-color="white"/>
<stop offset="1" stop-color="#F8FA88"/>
</linearGradient>
<clipPath id="clip0_22_474">
<rect width="36" height="36" fill="white" transform="matrix(-1 0 0 1 36 0)"/>
</clipPath>
</defs>
</svg>
