<svg width="18" height="25" viewBox="0 0 18 25" fill="none" xmlns="http://www.w3.org/2000/svg">
<g clip-path="url(#clip0_70_4787)">
<path d="M3 0.5C1.34531 0.5 0 1.84531 0 3.5V21.5C0 23.1547 1.34531 24.5 3 24.5H15C16.6547 24.5 18 23.1547 18 21.5V8H12C11.1703 8 10.5 7.32969 10.5 6.5V0.5H3ZM12 0.5V6.5H18L12 0.5ZM3 12.5C3 12.1022 3.15804 11.7206 3.43934 11.4393C3.72064 11.158 4.10218 11 4.5 11C4.89782 11 5.27936 11.158 5.56066 11.4393C5.84196 11.7206 6 12.1022 6 12.5C6 12.8978 5.84196 13.2794 5.56066 13.5607C5.27936 13.842 4.89782 14 4.5 14C4.10218 14 3.72064 13.842 3.43934 13.5607C3.15804 13.2794 3 12.8978 3 12.5ZM10.125 14C10.3734 14 10.6031 14.1219 10.7437 14.3234L14.8688 20.3234C15.0281 20.5531 15.0422 20.8531 14.9156 21.0969C14.7891 21.3406 14.5312 21.5 14.25 21.5H10.125H8.25H6H3.75C3.47813 21.5 3.22969 21.3547 3.09844 21.1203C2.96719 20.8859 2.96719 20.5953 3.10781 20.3656L5.35781 16.6156C5.49375 16.3906 5.7375 16.25 6 16.25C6.2625 16.25 6.50625 16.3859 6.64219 16.6156L7.24219 17.6188L9.50625 14.3281C9.64688 14.1266 9.87656 14.0047 10.125 14.0047V14Z" fill="url(#paint0_linear_70_4787)"/>
</g>
<defs>
<linearGradient id="paint0_linear_70_4787" x1="1.03448" y1="14.3462" x2="18.0006" y2="14.3693" gradientUnits="userSpaceOnUse">
<stop stop-color="#22F3F8"/>
<stop offset="1" stop-color="#29F479"/>
</linearGradient>
<clipPath id="clip0_70_4787">
<rect width="18" height="24" fill="white" transform="translate(0 0.5)"/>
</clipPath>
</defs>
</svg>
