<svg width="18" height="18" viewBox="0 0 18 18" fill="none" xmlns="http://www.w3.org/2000/svg">
<path d="M18 5.24978V6.74972C18 7.1637 17.664 7.49969 17.25 7.49969C16.836 7.49969 16.5 7.1637 16.5 6.74972V5.24978C16.5 4.42257 15.8273 3.74984 15 3.74984H13.4783L14.4158 4.73005C14.703 5.02854 14.694 5.50327 14.3948 5.79051C14.2493 5.93075 14.0625 5.99975 13.875 5.99975C13.6785 5.99975 13.482 5.9225 13.3342 5.76951L11.6753 4.04383C11.1045 3.47311 11.1045 2.52664 11.685 1.94542L13.3342 0.23024C13.6215 -0.0682472 14.097 -0.0772468 14.3948 0.209241C14.6933 0.496479 14.703 0.97121 14.4158 1.2697L13.473 2.24991H15C16.6545 2.24991 18 3.59535 18 5.24978ZM4.66575 12.2297C4.3785 11.9313 3.90375 11.923 3.60525 12.2095C3.30675 12.4967 3.297 12.9715 3.58425 13.2699L4.52175 14.2502H3C2.17275 14.2502 1.5 13.5774 1.5 12.7502V11.2503C1.5 10.8355 1.164 10.5003 0.75 10.5003C0.336 10.5003 0 10.8355 0 11.2503V12.7502C0 14.4046 1.3455 15.7501 3 15.7501H4.52625L3.58425 16.7303C3.297 17.0288 3.306 17.5035 3.60525 17.7908C3.75075 17.931 3.9375 18 4.125 18C4.3215 18 4.518 17.9228 4.66575 17.7698L6.315 16.0538C6.89475 15.4734 6.89475 14.5269 6.32475 13.9554L4.66575 12.2297ZM9 5.99975C9 7.65643 7.65675 8.99963 6 8.99963H3C1.34325 8.99963 0 7.65643 0 5.99975V2.99988C0 1.34319 1.34325 0 3 0H6C7.65675 0 9 1.34319 9 2.99988V5.99975ZM7.125 2.71189C7.125 2.4569 6.918 2.24991 6.663 2.24991H4.97025V1.96192C4.97025 1.70693 4.76325 1.49994 4.50825 1.49994H4.4925C4.2375 1.49994 4.0305 1.70693 4.0305 1.96192V2.24991H2.337C2.082 2.24991 1.875 2.4569 1.875 2.71189V2.72764C1.875 2.98263 2.082 3.18962 2.337 3.18962H5.481C5.39775 3.91184 5.118 4.8028 4.50375 5.49277C4.29675 5.26028 4.1235 5.00679 3.98475 4.7428C3.90525 4.59131 3.74625 4.49906 3.576 4.49906C3.228 4.49906 2.99925 4.86805 3.16125 5.17628C3.33 5.49877 3.537 5.80851 3.78375 6.09125C3.3795 6.33724 2.892 6.51048 2.301 6.56748C2.061 6.59073 1.875 6.78722 1.875 7.02796V7.04371C1.875 7.31745 2.112 7.52969 2.38425 7.50419C3.24375 7.42394 3.9435 7.14045 4.50825 6.73772C5.07 7.13745 5.7615 7.42244 6.61425 7.50419C6.88725 7.53044 7.12425 7.31819 7.12425 7.04446V7.02871C7.12425 6.79172 6.94425 6.59148 6.708 6.56898C6.114 6.51273 5.6265 6.33649 5.22 6.08975C5.9625 5.23853 6.33375 4.14658 6.42525 3.19037H6.66225C6.91725 3.19037 7.12425 2.98338 7.12425 2.72839V2.71264L7.125 2.71189ZM18 11.9995V14.9994C18 16.6561 16.6567 17.9993 15 17.9993H12C10.3433 17.9993 9 16.6561 9 14.9994V11.9995C9 10.3428 10.3433 8.99963 12 8.99963H15C16.6567 8.99963 18 10.3428 18 11.9995ZM15.603 15.8573L14.5807 11.3965C14.5005 11.0485 14.2785 10.7321 13.9493 10.5941C13.26 10.3053 12.558 10.7103 12.4072 11.3598L11.3475 15.8543C11.2695 16.1836 11.52 16.4993 11.8582 16.4993C12.1012 16.4993 12.3128 16.3321 12.369 16.0951L12.5745 15.2244H14.3812L14.58 16.0921C14.6348 16.3306 14.847 16.4993 15.0915 16.4993H15.093C15.4298 16.4993 15.6795 16.1858 15.6045 15.8573H15.603ZM13.4895 11.5495C13.461 11.5495 13.4362 11.569 13.4303 11.5968L12.822 14.1744H14.1398L13.5495 11.5968C13.5428 11.569 13.518 11.5495 13.4895 11.5495Z" fill="white"/>
</svg>
