<svg width="20" height="20" viewBox="0 0 20 20" fill="none" xmlns="http://www.w3.org/2000/svg">
<path d="M10 4.58386L9.54969 5.01728C9.55252 5.02018 9.55535 5.02304 9.55819 5.02589L10 4.58386ZM11.2249 6.69195C11.4689 6.93599 11.8647 6.93591 12.1087 6.69179C12.3528 6.44767 12.3527 6.05194 12.1085 5.8079L11.2249 6.69195ZM7.85506 15.2683C6.59201 14.2726 5.21091 13.3003 4.11526 12.0665C3.04104 10.8568 2.29169 9.44542 2.29169 7.61425H1.04169C1.04169 9.8355 1.9671 11.5301 3.18062 12.8965C4.37271 14.2388 5.89233 15.3127 7.0812 16.2499L7.85506 15.2683ZM2.29169 7.61425C2.29169 5.82186 3.3045 4.31877 4.68699 3.68683C6.03008 3.0729 7.83474 3.23549 9.54969 5.01728L10.4504 4.15044C8.41544 2.03627 6.05343 1.68783 4.16732 2.54997C2.32061 3.3941 1.04169 5.35419 1.04169 7.61425H2.29169ZM7.0812 16.2499C7.50806 16.5864 7.9663 16.9453 8.43069 17.2166C8.89494 17.4878 9.42469 17.7083 10 17.7083V16.4583C9.74202 16.4583 9.43844 16.3578 9.06135 16.1373C8.68444 15.9171 8.29342 15.6138 7.85506 15.2683L7.0812 16.2499ZM12.9189 16.2499C14.1077 15.3127 15.6274 14.2388 16.8194 12.8965C18.0329 11.5301 18.9584 9.8355 18.9584 7.61425H17.7084C17.7084 9.44542 16.959 10.8568 15.8848 12.0665C14.7891 13.3003 13.408 14.2726 12.145 15.2683L12.9189 16.2499ZM18.9584 7.61425C18.9584 5.35419 17.6794 3.3941 15.8327 2.54997C13.9466 1.68783 11.5846 2.03627 9.54969 4.15044L10.4504 5.01728C12.1653 3.23549 13.9699 3.0729 15.313 3.68683C16.6955 4.31877 17.7084 5.82186 17.7084 7.61425H18.9584ZM12.145 15.2683C11.7066 15.6138 11.3156 15.9171 10.9387 16.1373C10.5616 16.3578 10.258 16.4583 10 16.4583V17.7083C10.5754 17.7083 11.1051 17.4878 11.5694 17.2166C12.0338 16.9453 12.4919 16.5864 12.9189 16.2499L12.145 15.2683ZM9.55819 5.02589L11.2249 6.69195L12.1085 5.8079L10.4419 4.14184L9.55819 5.02589Z" fill="#DDE1E4"/>
</svg>
