<svg width="20" height="20" viewBox="0 0 20 20" fill="none" xmlns="http://www.w3.org/2000/svg">
<path d="M6.75523 15.2057C4.41516 13.4028 1.66667 11.2852 1.66667 7.61425C1.66667 3.5618 6.25014 0.687888 10 4.58386L11.6667 6.2494C11.9108 6.49343 12.3065 6.49336 12.5506 6.24923C12.7946 6.00512 12.7945 5.60939 12.5504 5.36536L10.9404 3.75593C14.4738 1.16924 18.3333 3.89554 18.3333 7.61425C18.3333 11.2852 15.5848 13.4028 13.2448 15.2057C13.0016 15.3931 12.7628 15.5771 12.5319 15.7591C11.6667 16.4412 10.8333 17.0833 10 17.0833C9.16667 17.0833 8.33334 16.4412 7.46811 15.7591C7.23726 15.5771 6.99846 15.3931 6.75523 15.2057Z" fill="#22F3F8"/>
</svg>
