<svg width="20" height="20" viewBox="0 0 20 20" fill="none" xmlns="http://www.w3.org/2000/svg">
<path d="M6.75531 15.2055C4.41524 13.4026 1.66675 11.285 1.66675 7.61413C1.66675 3.56168 6.25021 0.687766 10.0001 4.58374L11.6667 6.24928C11.9108 6.49331 12.3066 6.49324 12.5507 6.24911C12.7947 6.005 12.7946 5.60927 12.5505 5.36524L10.9405 3.75581C14.4738 1.16912 18.3334 3.89542 18.3334 7.61413C18.3334 11.285 15.5849 13.4026 13.2448 15.2055C13.0017 15.393 12.7628 15.577 12.532 15.759C11.6667 16.441 10.8334 17.0832 10.0001 17.0832C9.16675 17.0832 8.33341 16.441 7.46819 15.759C7.23734 15.577 6.99853 15.393 6.75531 15.2055Z" fill="white"/>
</svg>
