<svg width="36" height="36" viewBox="0 0 36 36" fill="none" xmlns="http://www.w3.org/2000/svg">
<g clip-path="url(#clip0_22_556)">
<g filter="url(#filter0_d_22_556)">
<rect x="3.59985" y="3.6001" width="28.1678" height="28.2836" rx="4" fill="#4A747B" fill-opacity="0.2" shape-rendering="crispEdges"/>
<rect x="4.09985" y="4.1001" width="27.1678" height="27.2836" rx="3.5" stroke="white" shape-rendering="crispEdges"/>
</g>
<path d="M17.6332 14.2693L12.5887 24.0221C11.5677 25.9959 13.0004 28.35 15.2227 28.35H24.9755C27.162 28.35 28.5967 26.0643 27.6461 24.0952L22.9378 14.3425C21.8753 12.1415 18.756 12.0985 17.6332 14.2693Z" fill="#A2D4E2"/>
<path d="M10.3119 18.8538L6.90977 25.4312C6.22121 26.7624 7.18745 28.35 8.68621 28.35H15.2636C16.7383 28.35 17.7059 26.8085 17.0647 25.4806L13.8894 18.9031C13.1729 17.4188 11.0691 17.3897 10.3119 18.8538Z" fill="#B0EEC0"/>
<circle cx="26.1" cy="9.90005" r="3.6" fill="#FAEF8F"/>
</g>
<defs>
<filter id="filter0_d_22_556" x="0.599854" y="2.6001" width="34.1678" height="34.2836" filterUnits="userSpaceOnUse" color-interpolation-filters="sRGB">
<feFlood flood-opacity="0" result="BackgroundImageFix"/>
<feColorMatrix in="SourceAlpha" type="matrix" values="0 0 0 0 0 0 0 0 0 0 0 0 0 0 0 0 0 0 127 0" result="hardAlpha"/>
<feOffset dy="2"/>
<feGaussianBlur stdDeviation="1.5"/>
<feComposite in2="hardAlpha" operator="out"/>
<feColorMatrix type="matrix" values="0 0 0 0 0 0 0 0 0 0 0 0 0 0 0 0 0 0 0.25 0"/>
<feBlend mode="normal" in2="BackgroundImageFix" result="effect1_dropShadow_22_556"/>
<feBlend mode="normal" in="SourceGraphic" in2="effect1_dropShadow_22_556" result="shape"/>
</filter>
<clipPath id="clip0_22_556">
<rect width="36" height="36" fill="white" transform="matrix(-1 0 0 1 36 0)"/>
</clipPath>
</defs>
</svg>
