<svg width="25" height="24" viewBox="0 0 25 24" fill="none" xmlns="http://www.w3.org/2000/svg">
<g clip-path="url(#clip0_39_449)">
<rect x="0.333374" width="24" height="24" rx="12" fill="white"/>
<path d="M12.3334 0C5.71637 0 0.333374 5.383 0.333374 12C0.333374 18.617 5.71637 24 12.3334 24C18.9504 24 24.3334 18.617 24.3334 12C24.3334 5.383 18.9504 0 12.3334 0ZM16.3334 13H8.33337C7.78137 13 7.33337 12.552 7.33337 12C7.33337 11.448 7.78137 11 8.33337 11H16.3334C16.8854 11 17.3334 11.448 17.3334 12C17.3334 12.552 16.8854 13 16.3334 13Z" fill="#F34E4E"/>
</g>
<defs>
<clipPath id="clip0_39_449">
<rect x="0.333374" width="24" height="24" rx="12" fill="white"/>
</clipPath>
</defs>
</svg>
