<svg width="20" height="20" viewBox="0 0 20 20" fill="none" xmlns="http://www.w3.org/2000/svg">
<path d="M10.6279 3.41609C10.9701 3.57085 11.1904 3.91014 11.1904 4.28513V15.7136C11.1904 16.0885 10.9701 16.4278 10.6279 16.5826C10.2856 16.7373 9.88383 16.6748 9.60407 16.4249L5.58924 12.8564H3.57141C2.52083 12.8564 1.66667 12.0023 1.66667 10.9517V9.04697C1.66667 7.99639 2.52083 7.14224 3.57141 7.14224H5.58924L9.60407 3.57383C9.88383 3.32383 10.2856 3.26431 10.6279 3.41609ZM14.3153 7.35057L15.9522 8.98745L17.5891 7.35057C17.8688 7.07081 18.3212 7.07081 18.598 7.35057C18.8748 7.63033 18.8778 8.0827 18.598 8.35948L16.9611 9.99637L18.598 11.6332C18.8778 11.913 18.8778 12.3654 18.598 12.6422C18.3182 12.9189 17.8659 12.9219 17.5891 12.6422L15.9522 11.0053L14.3153 12.6422C14.0356 12.9219 13.5832 12.9219 13.3064 12.6422C13.0296 12.3624 13.0266 11.91 13.3064 11.6332L14.9433 9.99637L13.3064 8.35948C13.0266 8.07972 13.0266 7.62735 13.3064 7.35057C13.5862 7.07379 14.0385 7.07081 14.3153 7.35057Z" fill="#DDE1E4"/>
</svg>
