<svg width="18" height="18" viewBox="0 0 18 18" fill="none" xmlns="http://www.w3.org/2000/svg">
<g clip-path="url(#clip0_70_7883)">
<path d="M13.8405 18.0833L13.3875 17.8538C12.5363 17.4293 9.75 15.8295 9.75 13.1512V10.4992C9.75 9.85275 10.1632 9.2805 10.7775 9.07725L13.875 8.0505L16.9725 9.07725C17.5868 9.2805 18 9.85275 18 10.4992V13.1512C18 16.1737 15.177 17.5448 14.3123 17.8927L13.8405 18.0833ZM11.25 0.4395V3.75H14.5605L11.25 0.4395ZM8.58 15H3.75V13.5H8.26125C8.25375 13.386 8.25 13.2697 8.25 13.152V12H3.75V10.5H8.25C8.25 9.20475 9.0765 8.061 10.3057 7.65375L13.875 6.47025L15 6.843V5.25H9.75V0H2.25C1.00725 0 0 1.00725 0 2.25V18H10.8585C9.97875 17.2897 9.057 16.2922 8.58 15Z" fill="white"/>
</g>
<defs>
<clipPath id="clip0_70_7883">
<rect width="18" height="18" fill="white"/>
</clipPath>
</defs>
</svg>
