<svg width="84" height="84" viewBox="0 0 84 84" fill="none" xmlns="http://www.w3.org/2000/svg">
<g filter="url(#filter0_i_70_3078)">
<rect width="84" height="84" rx="42" fill="url(#paint0_linear_70_3078)"/>
<rect x="0.5" y="0.5" width="83" height="83" rx="41.5" stroke="white"/>
<g clip-path="url(#clip0_70_3078)">
<path d="M27 49.5001C27 50.0201 27.18 50.4701 27.54 50.8501C27.9 51.2301 28.35 51.4101 28.89 51.3901H30.75C32.03 51.3901 33.25 51.1401 34.41 50.6401C35.57 50.1401 36.56 49.4701 37.38 48.6301C38.2 47.7901 38.87 46.7901 39.39 45.6301C39.91 44.4701 40.16 43.2601 40.14 42.0001C40.14 40.4601 40.68 39.1401 41.76 38.0401C42.84 36.9401 44.17 36.3901 45.75 36.3901H49.5V38.2501C49.5 38.6701 49.62 39.0301 49.86 39.3301C50.1 39.6301 50.37 39.8501 50.67 39.9901C50.97 40.1301 51.32 40.1701 51.72 40.1101C52.12 40.0501 52.45 39.8801 52.71 39.6001L56.46 35.8501C56.84 35.4501 57.02 35.0001 57 34.5001C56.98 34.0001 56.8 33.5601 56.46 33.1801L52.71 29.4301C52.41 29.1501 52.07 28.9801 51.69 28.9201C51.31 28.8601 50.96 28.9001 50.64 29.0401C50.32 29.1801 50.05 29.4001 49.83 29.7001C49.61 30.0001 49.5 30.3501 49.5 30.7501V32.6401H45.75C44.49 32.6401 43.28 32.8901 42.12 33.3901C40.96 33.8901 39.96 34.5501 39.12 35.3701C38.28 36.1901 37.61 37.1901 37.11 38.3701C36.61 39.5501 36.37 40.7601 36.39 42.0001C36.39 43.5601 35.84 44.8901 34.74 45.9901C33.64 47.0901 32.31 47.6401 30.75 47.6401H28.89C28.37 47.6401 27.92 47.8201 27.54 48.1801C27.16 48.5401 26.98 48.9801 27 49.5001ZM27 34.5301C27 35.0501 27.18 35.4901 27.54 35.8501C27.9 36.2101 28.35 36.3901 28.89 36.3901H30.75C31.63 36.3901 32.44 36.5801 33.18 36.9601C33.92 37.3401 34.57 37.8601 35.13 38.5201C35.55 37.2401 36.17 36.0901 36.99 35.0701C35.17 33.4501 33.09 32.6401 30.75 32.6401H28.89C28.37 32.6401 27.92 32.8301 27.54 33.2101C27.16 33.5901 26.98 34.0301 27 34.5301ZM39.54 48.9901C41.32 50.5901 43.39 51.3901 45.75 51.3901H49.5V53.2801C49.5 53.6801 49.62 54.0401 49.86 54.3601C50.1 54.6801 50.37 54.9001 50.67 55.0201C50.97 55.1401 51.32 55.1701 51.72 55.1101C52.12 55.0501 52.45 54.8801 52.71 54.6001L56.46 50.8501C56.84 50.4701 57.02 50.0201 57 49.5001C56.98 48.9801 56.8 48.5501 56.46 48.2101L52.71 44.4601C52.41 44.1601 52.07 43.9801 51.69 43.9201C51.31 43.8601 50.96 43.9001 50.64 44.0401C50.32 44.1801 50.05 44.4101 49.83 44.7301C49.61 45.0501 49.5 45.4001 49.5 45.7801V47.6401H45.75C44.89 47.6401 44.08 47.4601 43.32 47.1001C42.56 46.7401 41.92 46.2201 41.4 45.5401C40.96 46.8201 40.34 47.9701 39.54 48.9901Z" fill="black"/>
</g>
</g>
<defs>
<filter id="filter0_i_70_3078" x="0" y="0" width="84" height="88" filterUnits="userSpaceOnUse" color-interpolation-filters="sRGB">
<feFlood flood-opacity="0" result="BackgroundImageFix"/>
<feBlend mode="normal" in="SourceGraphic" in2="BackgroundImageFix" result="shape"/>
<feColorMatrix in="SourceAlpha" type="matrix" values="0 0 0 0 0 0 0 0 0 0 0 0 0 0 0 0 0 0 127 0" result="hardAlpha"/>
<feOffset dy="4"/>
<feGaussianBlur stdDeviation="2"/>
<feComposite in2="hardAlpha" operator="arithmetic" k2="-1" k3="1"/>
<feColorMatrix type="matrix" values="0 0 0 0 0 0 0 0 0 0 0 0 0 0 0 0 0 0 0.25 0"/>
<feBlend mode="normal" in2="shape" result="effect1_innerShadow_70_3078"/>
</filter>
<linearGradient id="paint0_linear_70_3078" x1="42" y1="84" x2="42" y2="0" gradientUnits="userSpaceOnUse">
<stop stop-color="#86FAA9"/>
<stop offset="1" stop-color="#6FF8F5"/>
</linearGradient>
<clipPath id="clip0_70_3078">
<rect width="30" height="30" fill="white" transform="translate(27 27)"/>
</clipPath>
</defs>
</svg>
