<svg width="18" height="18" viewBox="0 0 18 18" fill="none" xmlns="http://www.w3.org/2000/svg">
<g clip-path="url(#clip0_70_7875)">
<path d="M15 2.25H3C1.3455 2.25 0 3.5955 0 5.25V11.25C0 12.9045 1.3455 14.25 3 14.25H5.19225L8.004 16.6178C8.2905 16.872 8.64975 16.998 9.00675 16.998C9.35775 16.998 9.705 16.8758 9.97575 16.635L12.8617 14.25H15.0007C16.6553 14.25 18.0007 12.9045 18.0007 11.25V5.25C18.0007 3.5955 16.6545 2.25 15 2.25ZM5.8665 8.157L4.97925 8.88L5.346 9.9975C5.39625 10.149 5.346 10.3155 5.21925 10.4123C5.0925 10.509 4.91925 10.5157 4.78575 10.4295L3.753 9.75675L2.7375 10.4362C2.6745 10.4782 2.60175 10.4992 2.529 10.4992C2.4495 10.4992 2.37075 10.4745 2.304 10.4242C2.1765 10.329 2.12325 10.1632 2.17125 10.0118L2.52375 8.88075L1.632 8.1555C1.512 8.0535 1.4685 7.88775 1.5225 7.74075C1.5765 7.593 1.7175 7.49475 1.87425 7.49475H2.99925L3.3975 6.37725C3.45225 6.23025 3.5925 6.1335 3.74925 6.1335C3.906 6.1335 4.04625 6.231 4.101 6.37725L4.49925 7.49475H5.62425C5.78175 7.49475 5.92275 7.593 5.97675 7.7415C6.03075 7.89 5.98725 8.05575 5.8665 8.157ZM11.1165 8.157L10.2292 8.88L10.596 9.9975C10.6462 10.149 10.596 10.3155 10.4692 10.4123C10.3425 10.509 10.1692 10.5157 10.0357 10.4295L9.003 9.75675L7.9875 10.4362C7.9245 10.4782 7.85175 10.4992 7.779 10.4992C7.6995 10.4992 7.62075 10.4745 7.554 10.4242C7.4265 10.329 7.37325 10.1632 7.42125 10.0118L7.77375 8.88075L6.882 8.1555C6.762 8.0535 6.7185 7.88775 6.7725 7.74075C6.8265 7.593 6.9675 7.49475 7.12425 7.49475H8.24925L8.6475 6.37725C8.70225 6.23025 8.8425 6.1335 8.99925 6.1335C9.156 6.1335 9.29625 6.231 9.351 6.37725L9.74925 7.49475H10.8742C11.0317 7.49475 11.1727 7.593 11.2267 7.7415C11.2808 7.89 11.2372 8.05575 11.1165 8.157ZM16.3665 8.157L15.4792 8.88L15.846 9.9975C15.8962 10.149 15.846 10.3155 15.7192 10.4123C15.5925 10.509 15.4193 10.5157 15.2858 10.4295L14.253 9.75675L13.2375 10.4362C13.1745 10.4782 13.1017 10.4992 13.029 10.4992C12.9495 10.4992 12.8708 10.4745 12.804 10.4242C12.6765 10.329 12.6233 10.1632 12.6713 10.0118L13.0238 8.88075L12.132 8.1555C12.012 8.0535 11.9685 7.88775 12.0225 7.74075C12.0765 7.593 12.2175 7.49475 12.3743 7.49475H13.4993L13.8975 6.37725C13.9523 6.23025 14.0925 6.1335 14.2493 6.1335C14.406 6.1335 14.5463 6.231 14.601 6.37725L14.9993 7.49475H16.1243C16.2817 7.49475 16.4228 7.593 16.4767 7.7415C16.5308 7.89 16.4865 8.05575 16.3657 8.157H16.3665Z" fill="white"/>
</g>
<defs>
<clipPath id="clip0_70_7875">
<rect width="18" height="18" fill="white"/>
</clipPath>
</defs>
</svg>
