<svg width="36" height="36" viewBox="0 0 36 36" fill="none" xmlns="http://www.w3.org/2000/svg">
<g clip-path="url(#clip0_46_1364)">
<circle cx="18" cy="18" r="13.5" fill="url(#paint0_linear_46_1364)"/>
<path d="M4.5 18C4.5 25.4558 10.5442 31.5 18 31.5C21.797 31.5 25.228 29.9324 27.6809 27.4091C30.0445 24.9776 31.5 21.6588 31.5 18C31.5 10.5442 25.4558 4.5 18 4.5" stroke="url(#paint1_linear_46_1364)" stroke-width="1.5"/>
<path fill-rule="evenodd" clip-rule="evenodd" d="M19.709 10.6142C19.4313 10.5 19.0791 10.5 18.3749 10.5C17.6706 10.5 17.3185 10.5 17.0408 10.6142C16.6704 10.7664 16.3762 11.0584 16.2228 11.426C16.1528 11.5938 16.1254 11.7889 16.1146 12.0735C16.0989 12.4918 15.8827 12.8789 15.5175 13.0882C15.1523 13.2975 14.7064 13.2897 14.3335 13.0941C14.0798 12.961 13.8958 12.887 13.7144 12.8633C13.3169 12.8113 12.915 12.9182 12.597 13.1604C12.3585 13.342 12.1824 13.6447 11.8303 14.2499C11.4782 14.8552 11.3021 15.1579 11.2629 15.4537C11.2106 15.8481 11.3183 16.247 11.5623 16.5626C11.6737 16.7067 11.8302 16.8277 12.0732 16.9792C12.4303 17.202 12.6601 17.5814 12.6601 18C12.6601 18.4186 12.4303 18.7979 12.0732 19.0206C11.8302 19.1722 11.6736 19.2933 11.5622 19.4374C11.3182 19.753 11.2105 20.1518 11.2628 20.5463C11.3021 20.8421 11.4781 21.1447 11.8302 21.75C12.1823 22.3553 12.3584 22.6579 12.5969 22.8395C12.9149 23.0817 13.3169 23.1886 13.7143 23.1367C13.8957 23.113 14.0797 23.039 14.3334 22.9059C14.7063 22.7103 15.1522 22.7025 15.5175 22.9117C15.8827 23.1211 16.0989 23.5082 16.1146 23.9266C16.1254 24.2111 16.1528 24.4063 16.2228 24.574C16.3762 24.9416 16.6704 25.2336 17.0408 25.3858C17.3185 25.5 17.6706 25.5 18.3749 25.5C19.0791 25.5 19.4313 25.5 19.709 25.3858C20.0793 25.2336 20.3736 24.9416 20.5269 24.574C20.597 24.4063 20.6244 24.2111 20.6351 23.9265C20.6509 23.5082 20.867 23.1211 21.2322 22.9117C21.5975 22.7024 22.0434 22.7103 22.4163 22.9059C22.67 23.039 22.854 23.1129 23.0354 23.1366C23.4328 23.1886 23.8347 23.0817 24.1527 22.8395C24.3913 22.6579 24.5673 22.3553 24.9195 21.7499C25.2716 21.1447 25.4476 20.8421 25.4869 20.5463C25.5392 20.1518 25.4315 19.7529 25.1875 19.4373C25.0761 19.2932 24.9195 19.1721 24.6765 19.0206C24.3195 18.7979 24.0897 18.4185 24.0897 17.9999C24.0897 17.5813 24.3195 17.2021 24.6765 16.9794C24.9196 16.8278 25.0761 16.7068 25.1876 16.5626C25.4316 16.247 25.5393 15.8482 25.487 15.4537C25.4477 15.1579 25.2717 14.8553 24.9195 14.25C24.5674 13.6447 24.3914 13.3421 24.1528 13.1605C23.8348 12.9183 23.4329 12.8114 23.0355 12.8633C22.854 12.887 22.6701 12.961 22.4164 13.0941C22.0435 13.2897 21.5976 13.2975 21.2323 13.0882C20.8671 12.8789 20.6509 12.4917 20.6351 12.0735C20.6244 11.7889 20.597 11.5937 20.5269 11.426C20.3736 11.0584 20.0793 10.7664 19.709 10.6142ZM18.3749 20.25C19.627 20.25 20.642 19.2427 20.642 18C20.642 16.7573 19.627 15.75 18.3749 15.75C17.1228 15.75 16.1077 16.7573 16.1077 18C16.1077 19.2427 17.1228 20.25 18.3749 20.25Z" fill="url(#paint2_linear_46_1364)"/>
<g filter="url(#filter0_d_46_1364)">
<path d="M4.00005 6.2998C4.00005 6.2998 4.27317 8.84902 5.337 9.91286C6.40083 10.9767 8.95005 11.2498 8.95005 11.2498C8.95005 11.2498 6.40083 11.5229 5.337 12.5868C4.27317 13.6506 4.00005 16.1998 4.00005 16.1998C4.00005 16.1998 3.72693 13.6506 2.6631 12.5868C1.59927 11.5229 -0.949951 11.2498 -0.949951 11.2498C-0.949951 11.2498 1.59927 10.9767 2.6631 9.91286C3.72693 8.84902 4.00005 6.2998 4.00005 6.2998Z" fill="url(#paint3_linear_46_1364)"/>
</g>
<g filter="url(#filter1_d_46_1364)">
<path d="M11 -0.899902C11 -0.899902 11.3228 2.11281 12.5801 3.37007C13.8373 4.62732 16.85 4.9501 16.85 4.9501C16.85 4.9501 13.8373 5.27287 12.5801 6.53013C11.3228 7.78738 11 10.8001 11 10.8001C11 10.8001 10.6772 7.78738 9.41999 6.53013C8.16274 5.27287 5.15002 4.9501 5.15002 4.9501C5.15002 4.9501 8.16274 4.62732 9.41999 3.37007C10.6772 2.11281 11 -0.899902 11 -0.899902Z" fill="url(#paint4_linear_46_1364)"/>
</g>
</g>
<defs>
<filter id="filter0_d_46_1364" x="-4.94995" y="6.2998" width="17.9" height="17.8999" filterUnits="userSpaceOnUse" color-interpolation-filters="sRGB">
<feFlood flood-opacity="0" result="BackgroundImageFix"/>
<feColorMatrix in="SourceAlpha" type="matrix" values="0 0 0 0 0 0 0 0 0 0 0 0 0 0 0 0 0 0 127 0" result="hardAlpha"/>
<feOffset dy="4"/>
<feGaussianBlur stdDeviation="2"/>
<feComposite in2="hardAlpha" operator="out"/>
<feColorMatrix type="matrix" values="0 0 0 0 0 0 0 0 0 0 0 0 0 0 0 0 0 0 0.25 0"/>
<feBlend mode="normal" in2="BackgroundImageFix" result="effect1_dropShadow_46_1364"/>
<feBlend mode="normal" in="SourceGraphic" in2="effect1_dropShadow_46_1364" result="shape"/>
</filter>
<filter id="filter1_d_46_1364" x="1.15002" y="-0.899902" width="19.7" height="19.7002" filterUnits="userSpaceOnUse" color-interpolation-filters="sRGB">
<feFlood flood-opacity="0" result="BackgroundImageFix"/>
<feColorMatrix in="SourceAlpha" type="matrix" values="0 0 0 0 0 0 0 0 0 0 0 0 0 0 0 0 0 0 127 0" result="hardAlpha"/>
<feOffset dy="4"/>
<feGaussianBlur stdDeviation="2"/>
<feComposite in2="hardAlpha" operator="out"/>
<feColorMatrix type="matrix" values="0 0 0 0 0 0 0 0 0 0 0 0 0 0 0 0 0 0 0.25 0"/>
<feBlend mode="normal" in2="BackgroundImageFix" result="effect1_dropShadow_46_1364"/>
<feBlend mode="normal" in="SourceGraphic" in2="effect1_dropShadow_46_1364" result="shape"/>
</filter>
<linearGradient id="paint0_linear_46_1364" x1="6.5" y1="8.5" x2="26.5" y2="32" gradientUnits="userSpaceOnUse">
<stop stop-color="#8EFAA0"/>
<stop offset="1" stop-color="white"/>
</linearGradient>
<linearGradient id="paint1_linear_46_1364" x1="27.9" y1="28.35" x2="10.35" y2="9" gradientUnits="userSpaceOnUse">
<stop stop-color="#01B643"/>
<stop offset="0.274856" stop-color="#004550"/>
<stop offset="0.691004" stop-color="#F1FDF3"/>
</linearGradient>
<linearGradient id="paint2_linear_46_1364" x1="18.3749" y1="10.5" x2="18.3749" y2="25.5" gradientUnits="userSpaceOnUse">
<stop stop-color="#07A34A"/>
<stop offset="1" stop-color="#033D1C"/>
</linearGradient>
<linearGradient id="paint3_linear_46_1364" x1="4.00005" y1="16.1998" x2="4.00005" y2="6.2998" gradientUnits="userSpaceOnUse">
<stop stop-color="#FBF4A0"/>
<stop offset="1" stop-color="white"/>
</linearGradient>
<linearGradient id="paint4_linear_46_1364" x1="11" y1="5.4001" x2="15.05" y2="3.1501" gradientUnits="userSpaceOnUse">
<stop stop-color="#DEFCC1"/>
<stop offset="0.542607" stop-color="white"/>
<stop offset="1" stop-color="#D6FF30"/>
</linearGradient>
<clipPath id="clip0_46_1364">
<rect width="36" height="36" fill="white" transform="matrix(-1 0 0 1 36 0)"/>
</clipPath>
</defs>
</svg>
