<svg width="36" height="36" viewBox="0 0 36 36" fill="none" xmlns="http://www.w3.org/2000/svg">
<g clip-path="url(#clip0_22_535)">
<path d="M4.94995 18C4.94995 25.4558 10.9941 31.5 18.45 31.5C22.247 31.5 25.6779 29.9324 28.1308 27.4091C30.4944 24.9776 31.95 21.6588 31.95 18C31.95 10.5442 25.9058 4.5 18.45 4.5" stroke="#BFCED2" stroke-width="1.5" stroke-linecap="round"/>
<path fill-rule="evenodd" clip-rule="evenodd" d="M19.7091 10.6142C19.4314 10.5 19.0792 10.5 18.375 10.5C17.6707 10.5 17.3186 10.5 17.0409 10.6142C16.6705 10.7664 16.3763 11.0584 16.2229 11.426C16.1529 11.5938 16.1255 11.7889 16.1148 12.0735C16.099 12.4918 15.8829 12.8789 15.5176 13.0882C15.1524 13.2975 14.7065 13.2897 14.3336 13.0941C14.0799 12.961 13.8959 12.887 13.7145 12.8633C13.3171 12.8113 12.9151 12.9182 12.5971 13.1604C12.3586 13.342 12.1825 13.6447 11.8304 14.2499C11.4783 14.8552 11.3023 15.1579 11.263 15.4537C11.2107 15.8481 11.3184 16.247 11.5624 16.5626C11.6738 16.7067 11.8303 16.8277 12.0733 16.9792C12.4304 17.202 12.6602 17.5814 12.6602 18C12.6602 18.4186 12.4304 18.7979 12.0733 19.0206C11.8303 19.1722 11.6737 19.2933 11.5623 19.4374C11.3183 19.753 11.2106 20.1518 11.2629 20.5463C11.3022 20.8421 11.4782 21.1447 11.8303 21.75C12.1825 22.3553 12.3585 22.6579 12.597 22.8395C12.9151 23.0817 13.317 23.1886 13.7144 23.1367C13.8958 23.113 14.0798 23.039 14.3335 22.9059C14.7064 22.7103 15.1523 22.7025 15.5176 22.9117C15.8829 23.1211 16.099 23.5082 16.1148 23.9266C16.1255 24.2111 16.1529 24.4063 16.2229 24.574C16.3763 24.9416 16.6705 25.2336 17.0409 25.3858C17.3186 25.5 17.6707 25.5 18.375 25.5C19.0792 25.5 19.4314 25.5 19.7091 25.3858C20.0794 25.2336 20.3737 24.9416 20.527 24.574C20.5971 24.4063 20.6245 24.2111 20.6353 23.9265C20.651 23.5082 20.8671 23.1211 21.2323 22.9117C21.5976 22.7024 22.0435 22.7103 22.4164 22.9059C22.6702 23.039 22.8541 23.1129 23.0355 23.1366C23.4329 23.1886 23.8348 23.0817 24.1528 22.8395C24.3914 22.6579 24.5674 22.3553 24.9196 21.7499C25.2717 21.1447 25.4477 20.8421 25.487 20.5463C25.5393 20.1518 25.4316 19.7529 25.1876 19.4373C25.0762 19.2932 24.9196 19.1721 24.6766 19.0206C24.3196 18.7979 24.0898 18.4185 24.0898 17.9999C24.0898 17.5813 24.3196 17.2021 24.6766 16.9794C24.9197 16.8278 25.0762 16.7068 25.1877 16.5626C25.4317 16.247 25.5394 15.8482 25.4871 15.4537C25.4478 15.1579 25.2718 14.8553 24.9196 14.25C24.5675 13.6447 24.3915 13.3421 24.1529 13.1605C23.8349 12.9183 23.433 12.8114 23.0356 12.8633C22.8541 12.887 22.6702 12.961 22.4165 13.0941C22.0436 13.2897 21.5977 13.2975 21.2324 13.0882C20.8672 12.8789 20.651 12.4917 20.6352 12.0735C20.6245 11.7889 20.5971 11.5937 20.527 11.426C20.3737 11.0584 20.0794 10.7664 19.7091 10.6142ZM18.375 20.25C19.6271 20.25 20.6421 19.2427 20.6421 18C20.6421 16.7573 19.6271 15.75 18.375 15.75C17.1229 15.75 16.1079 16.7573 16.1079 18C16.1079 19.2427 17.1229 20.25 18.375 20.25Z" fill="#BFCED2"/>
<path d="M5.39995 6.30005C5.39995 6.30005 5.67307 8.84927 6.7369 9.9131C7.80073 10.9769 10.35 11.25 10.35 11.25C10.35 11.25 7.80073 11.5232 6.7369 12.587C5.67307 13.6508 5.39995 16.2 5.39995 16.2C5.39995 16.2 5.12683 13.6508 4.063 12.587C2.99917 11.5232 0.449951 11.25 0.449951 11.25C0.449951 11.25 2.99917 10.9769 4.063 9.9131C5.12683 8.84927 5.39995 6.30005 5.39995 6.30005Z" fill="#BBEDEE"/>
<path d="M11.7 -0.900024C11.7 -0.900024 12.0228 2.11269 13.28 3.36994C14.5373 4.6272 17.55 4.94998 17.55 4.94998C17.55 4.94998 14.5373 5.27275 13.28 6.53001C12.0228 7.78726 11.7 10.8 11.7 10.8C11.7 10.8 11.3772 7.78726 10.1199 6.53001C8.86269 5.27275 5.84998 4.94998 5.84998 4.94998C5.84998 4.94998 8.86269 4.6272 10.1199 3.36994C11.3772 2.11269 11.7 -0.900024 11.7 -0.900024Z" fill="#BBEDEE"/>
</g>
<defs>
<clipPath id="clip0_22_535">
<rect width="36" height="36" fill="white" transform="matrix(-1 0 0 1 36 0)"/>
</clipPath>
</defs>
</svg>
