<svg width="24" height="24" viewBox="0 0 24 24" fill="none" xmlns="http://www.w3.org/2000/svg">
<path d="M20 21H4C3.46957 21 2.96086 20.7893 2.58579 20.4142C2.21071 20.0391 2 19.5304 2 19V6C2 5.46957 2.21071 4.96086 2.58579 4.58579C2.96086 4.21071 3.46957 4 4 4H8C8.26522 4 8.51957 4.10536 8.70711 4.29289C8.89464 4.48043 9 4.73478 9 5C9 5.26522 8.89464 5.51957 8.70711 5.70711C8.51957 5.89464 8.26522 6 8 6H4V19H20V13C20 12.7348 20.1054 12.4804 20.2929 12.2929C20.4804 12.1054 20.7348 12 21 12C21.2652 12 21.5196 12.1054 21.7071 12.2929C21.8946 12.4804 22 12.7348 22 13V19C22 19.5304 21.7893 20.0391 21.4142 20.4142C21.0391 20.7893 20.5304 21 20 21Z" fill="#DDE1E4"/>
<path d="M21.62 6.22L16.62 2.22C16.4736 2.10393 16.2977 2.03117 16.1121 2.00996C15.9265 1.98875 15.7387 2.01994 15.57 2.1C15.3998 2.18105 15.256 2.30854 15.1552 2.46778C15.0543 2.62702 15.0005 2.81151 15 3V4.19C13.234 4.68185 11.6415 5.65967 10.404 7.01214C9.16644 8.3646 8.33349 10.0374 7.99998 11.84C7.96352 12.0652 8.00513 12.296 8.1179 12.4943C8.23067 12.6925 8.40782 12.8463 8.61998 12.93C8.74089 12.9778 8.86997 13.0016 8.99998 13C9.16469 12.9991 9.32663 12.9576 9.47143 12.8791C9.61623 12.8006 9.73939 12.6876 9.82998 12.55C11 10.78 13.58 10.24 15 10.07V11C15.0005 11.1885 15.0543 11.373 15.1552 11.5322C15.256 11.6915 15.3998 11.819 15.57 11.9C15.7387 11.9801 15.9265 12.0112 16.1121 11.99C16.2977 11.9688 16.4736 11.8961 16.62 11.78L21.62 7.78C21.7368 7.6863 21.831 7.56757 21.8958 7.43256C21.9606 7.29756 21.9942 7.14974 21.9942 7C21.9942 6.85027 21.9606 6.70244 21.8958 6.56744C21.831 6.43244 21.7368 6.3137 21.62 6.22Z" fill="#DDE1E4"/>
</svg>
