<svg width="18" height="18" viewBox="0 0 18 18" fill="none" xmlns="http://www.w3.org/2000/svg">
<g clip-path="url(#clip0_70_7866)">
<path d="M0.000272317 8.98944C-0.00738234 10.9127 1.54557 12.4781 3.46889 12.4857C4.35465 12.4892 5.20849 12.1551 5.85658 11.5513L11.0462 13.8944C11.0101 14.0885 10.9904 14.2851 10.987 14.4825C10.9809 16.419 12.5458 17.9939 14.4824 18C16.4189 18.0061 17.9937 16.4412 17.9999 14.5047C18.006 12.5681 16.4411 10.9933 14.5046 10.9871C13.3475 10.9835 12.2632 11.5508 11.6065 12.5034L6.73075 10.3018C7.07708 9.46558 7.07841 8.52627 6.73451 7.68903L11.6035 5.47624C12.6999 7.06198 14.8743 7.45862 16.46 6.36221C18.0457 5.2658 18.4423 3.09153 17.3459 1.50579C16.2495 -0.0799575 14.0752 -0.476595 12.4895 0.619812C11.5451 1.27278 10.9822 2.34832 10.984 3.49645C10.9872 3.69407 11.0072 3.89102 11.0439 4.08523L5.86781 6.43732C4.46543 5.12047 2.26107 5.18982 0.944218 6.5922C0.33476 7.2413 -0.00302832 8.09908 0.000272317 8.98944Z" fill="white"/>
</g>
<defs>
<clipPath id="clip0_70_7866">
<rect width="18" height="18" fill="white"/>
</clipPath>
</defs>
</svg>
