<svg width="26" height="26" viewBox="0 0 26 26" fill="none" xmlns="http://www.w3.org/2000/svg">
<path d="M13 2.16667C14.0255 2.16694 14.712 3.39785 16.0839 5.85889L16.4383 6.49577C16.8282 7.19528 17.0241 7.54511 17.3281 7.77588C17.632 8.0065 18.0109 8.09233 18.7679 8.2636L19.4566 8.42017C22.1213 9.02308 23.454 9.32419 23.7709 10.3435C24.0877 11.3627 23.1794 12.4249 21.3631 14.5488L20.8933 15.099C20.6932 15.333 20.5339 15.5232 20.4046 15.6882C17.0001 13.2105 13.0864 10.8334 9.75002 10.8333C12.5424 12.2296 18.5313 18.0258 20.1634 19.6301C20.3674 21.8473 20.3892 23.0168 19.6566 23.5731C18.8267 24.203 17.5791 23.629 15.0842 22.4802L14.4388 22.1829C13.7302 21.8567 13.3757 21.6932 13 21.6931C12.6242 21.6931 12.2691 21.8565 11.5602 22.1829L10.9148 22.4802C8.41998 23.6289 7.17222 24.203 6.34239 23.5731C5.51317 22.943 5.64995 21.526 5.9245 18.6928L5.99644 17.9586C6.07442 17.1539 6.11337 16.7512 5.9975 16.378C5.88141 16.0047 5.62271 15.7024 5.10671 15.099L4.63699 14.5488C2.82042 12.4247 1.91213 11.3629 2.22911 10.3435C2.54608 9.32424 3.87795 9.02301 6.54234 8.42017L7.23212 8.2636C7.98924 8.09229 8.368 8.00664 8.67198 7.77588C8.71459 7.74353 8.75554 7.70881 8.7947 7.67115C9.03448 7.44037 9.22617 7.09581 9.56065 6.49577L9.91612 5.85889C11.2882 3.39754 11.9743 2.16667 13 2.16667Z" fill="url(#paint0_linear_10_552)"/>
<defs>
<linearGradient id="paint0_linear_10_552" x1="16.25" y1="5.95834" x2="13.5417" y2="13" gradientUnits="userSpaceOnUse">
<stop stop-color="#8CC9FF"/>
<stop offset="1" stop-color="#0063DC"/>
</linearGradient>
</defs>
</svg>
