<svg width="48" height="48" viewBox="0 0 48 48" fill="none" xmlns="http://www.w3.org/2000/svg">
<g opacity="0.25">
<path d="M36.9668 33.5348C35.6942 33.839 34.3658 34 33 34C23.6112 34 16 26.3888 16 17C16 16.0331 16.0807 15.085 16.2358 14.1621C16.1634 14.2317 16.0886 14.2958 16.0099 14.3556C15.4487 14.7817 14.7497 14.9398 13.3518 15.2561L12.0791 15.5441C7.15972 16.6571 4.70004 17.2136 4.11484 19.0955C3.52964 20.9774 5.2065 22.9382 8.5602 26.8598L9.42784 27.8744C10.3808 28.9888 10.8574 29.546 11.0717 30.2354C11.2861 30.9248 11.2141 31.6682 11.07 33.1552L10.9388 34.5088C10.4318 39.7412 10.1782 42.3574 11.7103 43.5204C13.2423 44.6834 15.5453 43.6232 20.1514 41.5024L21.343 40.9536C22.6518 40.351 23.3062 40.0498 24 40.0498C24.6938 40.0498 25.3482 40.351 26.657 40.9536L27.8486 41.5024C32.4546 43.6232 34.7576 44.6834 36.2898 43.5204C37.8218 42.3574 37.5682 39.7412 37.0612 34.5088L36.9668 33.5348Z" fill="#1C274C"/>
<path opacity="0.5" d="M18.3061 10.8168L17.6507 11.9925C16.9308 13.2839 16.5709 13.9296 16.0096 14.3556C16.0884 14.2958 16.1632 14.2317 16.2356 14.1621C16.0805 15.085 15.9998 16.0331 15.9998 17C15.9998 26.3888 23.6108 34 32.9998 34C34.3656 34 35.6938 33.839 36.9666 33.5348L36.9298 33.1552C36.7856 31.6682 36.7136 30.9248 36.928 30.2354C37.1424 29.546 37.6188 28.9888 38.5718 27.8744L39.4396 26.8598C42.7932 22.9382 44.47 20.9772 43.8848 19.0955C43.2996 17.2136 40.84 16.6571 35.9206 15.5441L34.648 15.2561C33.25 14.9398 32.551 14.7817 31.9898 14.3556C31.4286 13.9296 31.0686 13.2839 30.3488 11.9925L29.6934 10.8167C27.16 6.27224 25.8934 4 23.9998 4C22.106 4 20.8394 6.27226 18.3061 10.8168Z" fill="#1C274C"/>
</g>
</svg>
