<svg width="24" height="24" viewBox="0 0 24 24" fill="none" xmlns="http://www.w3.org/2000/svg">
<path d="M13.7232 16.5148C13.7185 16.405 13.5366 16.3613 13.4826 16.4571C13.2293 16.9068 12.7971 17.5682 12.3068 17.8689C11.8164 18.1696 11.031 18.2549 10.5153 18.2768C10.4055 18.2815 10.3619 18.4634 10.4577 18.5174C10.9074 18.7707 11.5687 19.2029 11.8694 19.6932C12.1701 20.1836 12.2554 20.969 12.2773 21.4847C12.282 21.5945 12.464 21.6381 12.5179 21.5423C12.7713 21.0926 13.2034 20.4313 13.6938 20.1306C14.1841 19.8299 14.9695 19.7446 15.4852 19.7227C15.5951 19.718 15.6387 19.536 15.5429 19.4821C15.0932 19.2287 14.4318 18.7966 14.1311 18.3062C13.8304 17.8159 13.7451 17.0305 13.7232 16.5148Z" fill="#F9DB70"/>
<path d="M5.50811 15.5147C5.51661 15.4051 5.70841 15.3591 5.76571 15.453C5.93801 15.7355 6.18651 16.0764 6.46261 16.2458C6.73881 16.4152 7.15541 16.482 7.48531 16.5075C7.59491 16.516 7.64092 16.7078 7.54702 16.7651C7.26452 16.9374 6.92361 17.1858 6.75421 17.462C6.58481 17.7382 6.51801 18.1548 6.49251 18.4847C6.48401 18.5943 6.29221 18.6403 6.23491 18.5464C6.06261 18.2639 5.81421 17.923 5.53801 17.7536C5.26181 17.5842 4.84522 17.5174 4.51532 17.4919C4.40571 17.4834 4.35971 17.2916 4.45361 17.2343C4.73611 17.062 5.07702 16.8135 5.24642 16.5374C5.41582 16.2612 5.48261 15.8446 5.50811 15.5147Z" fill="#5F0AA2"/>
<path d="M9.2966 4.00181L9.5389 3.69574C10.4755 2.51266 10.9439 1.92112 11.4887 2.00845C12.0335 2.09577 12.2941 2.80412 12.8151 4.22083L12.9499 4.58735C13.098 4.98993 13.172 5.19122 13.314 5.33897C13.456 5.48671 13.6499 5.56417 14.0376 5.71911L14.3906 5.86016L14.6384 5.95933C15.838 6.4406 16.4424 6.71331 16.5196 7.24324C16.6019 7.80849 16.0298 8.29205 14.8856 9.25915L14.5895 9.50935C14.2644 9.78417 14.1018 9.92158 14.0086 10.1089C13.9154 10.2962 13.9022 10.5121 13.8756 10.9441L13.8515 11.3373C13.7581 12.8574 13.7114 13.6174 13.2174 13.8794C12.7235 14.1414 12.1094 13.7319 10.8812 12.9129L10.5634 12.701C10.2144 12.4683 10.0399 12.3519 9.8403 12.32C9.6407 12.288 9.4387 12.344 9.0345 12.456L8.6666 12.558C7.2445 12.9522 6.5334 13.1493 6.1458 12.746C5.7582 12.3427 5.9507 11.6061 6.3359 10.1328L6.4355 9.75163C6.5449 9.33297 6.5997 9.12364 6.5695 8.91657C6.5394 8.70951 6.4277 8.52816 6.2045 8.16546L6.0013 7.83522C5.2157 6.55883 4.8229 5.92063 5.0773 5.40935C5.3318 4.89806 6.0649 4.85229 7.5311 4.76076L7.9104 4.73708C8.3271 4.71107 8.5354 4.69807 8.7164 4.60208C8.8973 4.5061 9.0304 4.338 9.2966 4.00181Z" fill="#F9DB70"/>
<path d="M15.165 13.326C17.3023 14.3702 19.0807 16.024 19.7516 18.0002C20.5041 13.2926 19.4602 10.2526 17.7869 8.36328C17.6427 8.658 17.4553 8.902 17.287 9.09269C16.9371 9.48911 16.4348 9.91347 15.9248 10.3444L15.5578 10.6545C15.4882 10.7134 15.434 10.7592 15.388 10.7989C15.3834 10.8632 15.3787 10.9383 15.3727 11.0357L15.3429 11.5212C15.3028 12.1761 15.2637 12.8155 15.165 13.326Z" fill="#5F0AA2"/>
</svg>
