<svg width="16" height="18" viewBox="0 0 16 18" fill="none" xmlns="http://www.w3.org/2000/svg">
<path d="M5.71429 2.8125C5.71429 1.88086 6.48214 1.125 7.42857 1.125H8.57143C9.51786 1.125 10.2857 1.88086 10.2857 2.8125V15.1875C10.2857 16.1191 9.51786 16.875 8.57143 16.875H7.42857C6.48214 16.875 5.71429 16.1191 5.71429 15.1875V2.8125ZM0 9.5625C0 8.63086 0.767857 7.875 1.71429 7.875H2.85714C3.80357 7.875 4.57143 8.63086 4.57143 9.5625V15.1875C4.57143 16.1191 3.80357 16.875 2.85714 16.875H1.71429C0.767857 16.875 0 16.1191 0 15.1875V9.5625ZM13.1429 3.375H14.2857C15.2321 3.375 16 4.13086 16 5.0625V15.1875C16 16.1191 15.2321 16.875 14.2857 16.875H13.1429C12.1964 16.875 11.4286 16.1191 11.4286 15.1875V5.0625C11.4286 4.13086 12.1964 3.375 13.1429 3.375Z" fill="white"/>
</svg>
