<svg width="24" height="25" viewBox="0 0 24 25" fill="none" xmlns="http://www.w3.org/2000/svg">
<rect y="0.5" width="24" height="24" rx="12" fill="#E5F4D9"/>
<path d="M12 4.53125C10.4239 4.53125 8.88326 4.99861 7.5728 5.87423C6.26235 6.74984 5.24097 7.99439 4.63784 9.45049C4.0347 10.9066 3.87689 12.5088 4.18437 14.0546C4.49185 15.6004 5.2508 17.0203 6.36525 18.1348C7.4797 19.2492 8.89959 20.0082 10.4454 20.3156C11.9912 20.6231 13.5934 20.4653 15.0495 19.8622C16.5056 19.259 17.7502 18.2377 18.6258 16.9272C19.5014 15.6167 19.9688 14.0761 19.9688 12.5C19.9688 10.3866 19.1292 8.35967 17.6348 6.86524C16.1403 5.37081 14.1134 4.53125 12 4.53125Z" fill="url(#paint0_linear_460_1494)"/>
<path d="M16.5468 11.1805L11.7548 16.2111C11.6243 16.3481 11.4675 16.4574 11.2937 16.5324C11.12 16.6074 10.9329 16.6466 10.7437 16.6475H10.7376C10.5495 16.6475 10.3633 16.6098 10.19 16.5365C10.0167 16.4632 9.85992 16.3559 9.72886 16.221L7.18683 13.6021C7.04858 13.4718 6.93816 13.3149 6.8622 13.1408C6.78625 12.9668 6.74635 12.7791 6.74491 12.5892C6.74347 12.3992 6.78052 12.211 6.85382 12.0358C6.92712 11.8606 7.03516 11.702 7.17141 11.5697C7.30766 11.4374 7.4693 11.334 7.64659 11.2659C7.82387 11.1977 8.01312 11.1662 8.20292 11.1732C8.39272 11.1802 8.57914 11.2256 8.75093 11.3066C8.92272 11.3876 9.07631 11.5026 9.20245 11.6446L10.7259 13.2144L14.5082 9.24221C14.6355 9.10836 14.7879 9.00088 14.9567 8.92592C15.1255 8.85095 15.3074 8.80998 15.4921 8.80532C15.6767 8.80066 15.8605 8.83242 16.0328 8.89877C16.2052 8.96513 16.3628 9.06479 16.4967 9.19206C16.6305 9.31933 16.738 9.47172 16.813 9.64052C16.8879 9.80933 16.9289 9.99125 16.9336 10.1759C16.9382 10.3605 16.9065 10.5443 16.8401 10.7167C16.7738 10.889 16.6741 11.0466 16.5468 11.1805Z" fill="url(#paint1_linear_460_1494)"/>
<defs>
<linearGradient id="paint0_linear_460_1494" x1="17.6358" y1="18.1358" x2="6.36422" y2="6.86422" gradientUnits="userSpaceOnUse">
<stop stop-color="#13B601"/>
<stop offset="0.52" stop-color="#13B601"/>
<stop offset="1" stop-color="#CBF4B4"/>
</linearGradient>
<linearGradient id="paint1_linear_460_1494" x1="14.1862" y1="13.7807" x2="9.6187" y2="9.21268" gradientUnits="userSpaceOnUse">
<stop stop-color="#CBF4B4"/>
<stop offset="0.57" stop-color="white"/>
<stop offset="1" stop-color="white"/>
</linearGradient>
</defs>
</svg>
