<svg width="26" height="26" viewBox="0 0 26 26" fill="none" xmlns="http://www.w3.org/2000/svg">
<path d="M3.25 7.06747C3.25 6.6401 3.60394 6.29365 4.04054 6.29365H9.22769C9.23473 5.38233 9.3335 4.13296 10.2379 3.26808C10.9497 2.58743 11.9254 2.16667 13 2.16667C14.0746 2.16667 15.0503 2.58743 15.7621 3.26808C16.6664 4.13296 16.7652 5.38233 16.7723 6.29365H21.9595C22.3961 6.29365 22.75 6.6401 22.75 7.06747C22.75 7.49483 22.3961 7.84128 21.9595 7.84128H4.04054C3.60394 7.84128 3.25 7.49483 3.25 7.06747Z" fill="#E92323"/>
<path fill-rule="evenodd" clip-rule="evenodd" d="M12.5619 23.8333H13.4381C16.4527 23.8333 17.9601 23.8333 18.94 22.8736C19.9201 21.9138 20.0203 20.3395 20.2209 17.1909L20.5098 12.654C20.6187 10.9456 20.6731 10.0914 20.1813 9.55007C19.6897 9.00877 18.8594 9.00877 17.199 9.00877H8.80106C7.14056 9.00877 6.31031 9.00877 5.81866 9.55007C5.32701 10.0914 5.38141 10.9456 5.49022 12.654L5.77916 17.1909C5.97969 20.3395 6.07996 21.9138 7.05998 22.8736C8.04001 23.8333 9.54732 23.8333 12.5619 23.8333ZM11.1002 13.2042C11.0555 12.7342 10.6573 12.3913 10.2108 12.4383C9.76433 12.4853 9.43857 12.9043 9.48322 13.3744L10.0249 19.0761C10.0695 19.5462 10.4677 19.889 10.9142 19.842C11.3607 19.7951 11.6865 19.376 11.6418 18.9059L11.1002 13.2042ZM15.7892 12.4383C16.2357 12.4853 16.5615 12.9043 16.5168 13.3744L15.9752 19.0761C15.9305 19.5462 15.5323 19.889 15.0859 19.842C14.6393 19.7951 14.3136 19.376 14.3582 18.9059L14.8999 13.2042C14.9445 12.7342 15.3427 12.3913 15.7892 12.4383Z" fill="#E92323"/>
</svg>
