<svg width="20" height="20" viewBox="0 0 20 20" fill="none" xmlns="http://www.w3.org/2000/svg">
<path d="M15.9562 3.49207C17.8462 5.0268 19.0548 7.37404 19.0548 10.0008C19.0548 12.6277 17.8462 14.972 15.9562 16.5096C15.6563 16.7542 15.2165 16.7077 14.9719 16.4077C14.7273 16.1077 14.7739 15.668 15.0738 15.4234C16.6522 14.142 17.6569 12.1908 17.6569 10.0008C17.6569 7.81087 16.6522 5.85969 15.0738 4.57541C14.7739 4.33078 14.7302 3.89104 14.9719 3.59108C15.2136 3.29113 15.6563 3.24744 15.9562 3.48916V3.49207ZM14.1943 5.66166C15.4524 6.68676 16.2591 8.25061 16.2591 10.0008C16.2591 11.7511 15.4524 13.3149 14.1943 14.34C13.8944 14.5847 13.4546 14.5381 13.21 14.2381C12.9654 13.9381 13.012 13.4984 13.3119 13.2538C14.2584 12.485 14.8612 11.3143 14.8612 10.0008C14.8612 8.68744 14.2584 7.51674 13.3119 6.745C13.012 6.50038 12.9683 6.06063 13.21 5.76068C13.4517 5.46072 13.8944 5.41704 14.1943 5.65875V5.66166ZM12.4324 7.83125C13.0586 8.3438 13.4634 9.12427 13.4634 10.0008C13.4634 10.8774 13.0586 11.6579 12.4324 12.1704C12.1325 12.4151 11.6927 12.3685 11.4481 12.0685C11.2035 11.7686 11.2501 11.3288 11.55 11.0842C11.8646 10.8279 12.0655 10.4377 12.0655 10.0008C12.0655 9.56402 11.8646 9.17378 11.55 8.91459C11.2501 8.66997 11.2064 8.23023 11.4481 7.93027C11.6898 7.63031 12.1325 7.58663 12.4324 7.82834V7.83125ZM9.18534 3.55905C9.52024 3.71048 9.73574 4.04247 9.73574 4.40941V15.5923C9.73574 15.9592 9.52024 16.2912 9.18534 16.4426C8.85043 16.5941 8.45729 16.5329 8.18354 16.2883L4.25497 12.7966H2.2805C1.25249 12.7966 0.416687 11.9608 0.416687 10.9328V9.06894C0.416687 8.04093 1.25249 7.20513 2.2805 7.20513H4.25497L8.18354 3.7134C8.45729 3.46877 8.85043 3.41053 9.18534 3.55905Z" fill="#DDE1E4"/>
</svg>
